<svg width="26" height="26" viewBox="0 0 26 26" fill="none" xmlns="http://www.w3.org/2000/svg">
<path fill-rule="evenodd" clip-rule="evenodd" d="M0 8.125C0 7.26305 0.34241 6.4364 0.951903 5.8269C1.5614 5.21741 2.38805 4.875 3.25 4.875H15.4375C16.2258 4.87491 16.9872 5.16131 17.58 5.68088C18.1728 6.20045 18.5566 6.91777 18.6599 7.69925L23.7136 5.4535C23.961 5.34328 24.232 5.29663 24.502 5.31779C24.772 5.33895 25.0324 5.42725 25.2596 5.57466C25.4867 5.72208 25.6735 5.92393 25.8028 6.16188C25.9321 6.39982 25.9999 6.66631 26 6.93713V19.0629C25.9998 19.3335 25.932 19.5997 25.8027 19.8375C25.6735 20.0752 25.4869 20.277 25.26 20.4243C25.033 20.5717 24.7729 20.6601 24.5031 20.6814C24.2334 20.7027 23.9625 20.6564 23.7153 20.5465L18.6599 18.3007C18.5566 19.0822 18.1728 19.7995 17.58 20.3191C16.9872 20.8387 16.2258 21.1251 15.4375 21.125H3.25C2.38805 21.125 1.5614 20.7826 0.951903 20.1731C0.34241 19.5636 0 18.737 0 17.875V8.125Z" fill="#1D7ED8"/>
</svg>
