<svg width="24" height="24" viewBox="0 0 24 24" fill="none" xmlns="http://www.w3.org/2000/svg">
<path d="M2 6C2 4.93913 2.42143 3.92172 3.17157 3.17157C3.92172 2.42143 4.93913 2 6 2H18C19.0609 2 20.0783 2.42143 20.8284 3.17157C21.5786 3.92172 22 4.93913 22 6V18C22 19.0609 21.5786 20.0783 20.8284 20.8284C20.0783 21.5786 19.0609 22 18 22H6C4.93913 22 3.92172 21.5786 3.17157 20.8284C2.42143 20.0783 2 19.0609 2 18V6Z" stroke="#10D83C" stroke-width="2" stroke-linecap="round" stroke-linejoin="round"/>
<path d="M8.5 11C9.88071 11 11 9.88071 11 8.5C11 7.11929 9.88071 6 8.5 6C7.11929 6 6 7.11929 6 8.5C6 9.88071 7.11929 11 8.5 11Z" stroke="#10D83C" stroke-width="2" stroke-linecap="round" stroke-linejoin="round"/>
<path d="M14.526 12.6211L6 22.0001H18.133C19.1586 22.0001 20.1422 21.5926 20.8674 20.8674C21.5926 20.1422 22 19.1586 22 18.1331V18.0001C22 17.5341 21.825 17.3551 21.51 17.0101L17.48 12.6151C17.2922 12.4102 17.0637 12.2467 16.8092 12.135C16.5546 12.0234 16.2796 11.966 16.0017 11.9666C15.7237 11.9671 15.449 12.0256 15.1949 12.1383C14.9408 12.251 14.713 12.4154 14.526 12.6211V12.6211Z" stroke="#10D83C" stroke-width="2" stroke-linecap="round" stroke-linejoin="round"/>
</svg>
